<svg id="Ebene_1" xmlns="http://www.w3.org/2000/svg" version="1.1" viewBox="0 0 781.5 380.7">
  
  <path d="M772.3,189c-3.6,11.2-9.2,21.5-17.4,30.5-30.7,33-65.5,60.6-105.9,80.8-9.4,4.7-18.9,9.1-28.4,13.5-11.8,5.4-23.2,11.1-36.9,12.5-.9,0-1.8.3-2.7.5-14.4,7.5-29.3,14.1-45,18.3-7.5,2-14.8,6.8-22.6,9.2-14.3,4.3-28.3,9.9-42.8,13.3-14.8,3.5-30,4.7-44.9,7.4-21.6,3.9-43.4,4.5-65.1,5.6-14.1.7-28.3,0-42.5-.3-14.2-.3-28.4-.8-42.6-1.2-6.7-.2-13.4-.2-20-.9-16.2-1.7-32.3-3.5-48.6-4.5-3.4-.2-6.8-.6-10.1-1.1-6.8-.4-13.4-1.5-20.2-3.6-3.2-.6-6.2-1.2-9.1-1.7-3.8-1.2-7.4-2.4-11-3.6-8.2-.6-16.9-.4-25.1-4.7-11.2-5.8-25-6.3-37.5-9.9-24.1-6.9-46.6-17.9-66.1-33.4C-.3,293.1-5.2,263.2,4.8,230.2c6.4-21,13.7-35,24.2-48.4,4.4-11,10-21.5,15.5-32,4.1-7.8,8.9-15.2,13.8-22.5,9.8-14.8,20.5-28.7,33.3-40.8,11.2-10.6,23.3-19.6,36.5-27.3,10.1-5.9,19.5-13.2,29.8-18.5,17.2-8.8,34.6-17.5,53.6-21.5,11.6-2.4,22.9-7.5,34.5-9.5,25.3-4.4,50.6-8.3,76.2-9.5,19.1-.9,37.8,1.6,56.7,1.6,10.4,0,20.8,2.9,31.1,4.8,14,2.5,28,5.7,42.1,7.8,19.1,0,38.2,0,57.3,0,9.2,0,18.1.1,27-4.4,5-2.6,12.4-1.2,18.7-.5,3.7.4,7.2,4.1,10.8,4.3,14.5.9,29.2,0,43.7,1.7,12.8,1.5,24.5,8.2,38.2,7.3,32.2-2.3,57.8,13.7,81.5,32.8,12.3,9.9,22.9,22,33.8,33.6,12.1,12.9,17.6,28.1,18.4,46.3.8,18.9-3.5,36.4-9,53.8h0ZM61.1,311.1c-2.2-2.2-4.3-4.6-6.4-7-5.9-6.5-11.5-13.4-16.6-20.8-10.8-15.7-16.7-33.5-18.3-52.4-2.6,8.5-3.7,17.6-2.7,27.5,0,4.1-1.1,9.7.2,14.6,3,11.1,5,22.8,17.7,28.6,7,3.2,12.6,9.5,19.2,13.7,1.5,1,4.7-.7,7.1-1.4.2,0,.3-2.3-.3-2.9h0ZM33.3,245.1c2.5,9.2,6.1,17.7,10.6,25.5,2.3-11.3,8.5-22.4,13.1-33.4,3.5-8.4,7.8-16.7,12.9-24.2,17.6-26,38.3-49.8,57.9-74.2,4.7-5.8,9-11.9,13.5-17.9-10.8-6.6-17.7,4-24.5,7.6-30.6,16.4-55,41.1-76.9,67.4-1.2,1.5-2.4,3-3.6,4.5-1,3.2-2.2,6.2-4.4,8.9,0,11.9-1.8,24,1.4,35.7h0ZM177.3,340.8c-10.4-4.1-20.7-8.4-30.7-13.4-14.3-7.1-27.8-14.9-38.9-27.1-17.5-19.4-24.4-42.2-20.4-67.7-9.3,13.3-18.6,26.6-27.8,39.9-4.4,6.3-2.7,17.2,3.4,21.6,18.1,12.9,35.9,27,57.1,33.8,18.4,5.9,36.9,12.9,56.8,12.9h.4ZM63.7,146.1c30-26.7,64.1-46,100.8-61.3,39.6-16.5,78.8-33.9,119.9-46.8,15.1-4.7,29-13.4,44.6-16.5-17.9-.4-35.8,1.3-53.6,3.8-16.6,2.4-33.3,5.6-49.5,10.4-19.6,5.8-38.7,13.5-57.9,20.6-4,1.5-7.6,4-11.6,5.7-17.5,7.6-33.2,18.4-47.8,31.3-9.9,8.7-18.5,18.5-27,28.7-6.4,7.7-12.3,15.7-17.8,24h0ZM651.6,221.5c4.5-3,8.9-6.1,13.3-9.3,1.1-3.2,2-6.6,2.8-10,1.7-11.1,2.7-22.3,5.2-33.2,5.6-23.8-4.2-40.3-20-54.6-13-11.8-28.1-20-43.3-27.4-14.3-6.9-28.6-14.4-44.4-17.7-2.5-.5-4.8-1.7-7.2-2.5-7.4-2.4-14.7-6.6-22.2-6.7-8,0-14.8-3.2-22.3-4.2-.4,0-.8-.1-1.2-.2-4.1,1.3-8.2,2.5-12.4,3.3-19,3.8-38.8,5.9-56.9,12.2-21.1,7.4-44.4,4.1-64.4,14.9-16.2-.3-29.6,9.6-44.9,12.6-7.6,1.5-15.4,2.2-23.1,2.6-4.9.2-8.7-8.2-5.5-11.8,3.5-3.9,7.1-8.4,11.6-10.4,8.2-3.7,17.1-6.4,25.9-8.5,13.9-3.3,28-5.5,42-8.8,15.2-3.6,30.8-6,45.7-9.5,8-1.9,16-3.4,24-4.8-18.1-.9-36.2-.9-54.3-1.3-13.8-.3-27.5.3-41.2,1.5-7.7,1.9-15.4,3.6-23,5.3.1.2.1.4.3.7,1.5,2.8.6,3.5-2.4,3.5-5.5,0-11.1-.2-16.6,0-7,1.5-13.9,3-20.9,4.7-7.8,3.2-15.3,7.5-22.9,11.4-9.7,4.9-19,10.5-28.6,15.7-6.5,3.5-13.1,6.9-19.7,10-15.9,7.4-30.7,17-45.5,26.7-4.9,3.2-9.6,7-14.8,9.8-3.1,2.6-6.3,5.1-9.4,7.8-15.2,12.9-26.3,29.2-37.6,45.4-6,8.6-12,17.2-18,25.8-.6,1.8-1.3,3.7-1.8,5.5-8.1,27.4-.8,51.1,16.8,70.9,11.3,12.7,26,19.9,41.9,24.7,12.9,3.8,25.6,8.5,38.3,12.8.8.3,1.5.8,2.2,1.1,5.5,2.1,10.8,4.8,16.4,6.1,5.1,1.1,10.3-.8,15.5,3.1,3.9,2.9,10.5,1.7,15.9,2.5,3.9.6,7.9,1.3,11.8,2.1.9-.3,1.8-.6,2.7-.8,5-1.2,10.4-2.2,15.5-1.8,13.6,1.2,25.6-5.5,38.2-7.1,14.5-1.8,28.2-4.8,41.9-9,18.6-5.7,37.3-11.2,56.2-15.7,52.9-12.8,106.5-23,156.8-45.1,5.9-2.6,13.8-2,18.5-5.7,19.6-16.1,44.3-22.9,65-36.6h0ZM645,250.3c-12.7,8.6-25.2,17.6-38,26.3-15.2.5-27.1,9.4-39.5,16.4-12.9,7.3-27.4,7.6-41,11.8-24.7,7.5-48.1,19.3-74.3,21.7-1.1,0-2.1,1.5-3.2,2.3,2,1.3,3.9,3.5,6,3.7,5.2.5,10.5.2,23.7.2,1.4-.1,11.1.7,19.5-2.2,18.4-6.3,38-8.5,56-15.6,3.4-1.3,6.8-2.4,10.3-3.5,9.6-4.5,19.1-9.8,28.5-14.8,16.9-9.2,32.1-20.4,44.7-36.4,2.5-3.2,5-6.5,7.3-9.8h0ZM569.2,39.3c2.8.9,5.6,1.8,8.4,2.7,19.1,6.8,38.3,14,56.5,23.6,11.1,5.9,22.9,10.7,34.4,16.1,13.3,6.2,25.9,13.5,37.3,22.9,7.8,6.4,16.2,12,22.5,20.5,1,1.4,2,2.8,2.9,4.2.9-2,.8-5.4-.3-7.4-4.5-8-7.9-17.6-14.6-23-25.5-20.6-52.8-39.2-83.7-50.5-20.5-7.5-41.8-14.3-63.4-9.2h0ZM667.2,247.6c23-18.6,45.6-37.4,58.1-66.1-15.5,21.1-33.3,39.9-56.7,53.7-2,1.2-4,2.5-6.1,3.8-2,4-4,8.1-5.9,12.2-1,2.2-2,4.4-3,6.6,2.2-1.3,4.6-2.5,6.7-4,2.4-1.8,4.5-4.2,6.8-6.1h0ZM683.4,155.7c.3,14.9-2.8,30.2-5.8,45-.2.9-.4,1.7-.6,2.6,8.4-6.3,16.6-12.7,25-18.9,13.6-10.1,18-25.1,23.2-39.7-3.2-5.5-7.6-10.2-12.5-14.9-15.5-14.8-36.2-19-53.5-30.7-1.4.1-2.9.3-4.5.5.8,1.5,1.4,3.2,2.5,4.4,2.7,2.8,5.6,5.2,8.3,7.9,11.9,11.7,17.5,27.3,17.9,43.8h0ZM771.5,140c-7.2-19.6-13.7-39.7-33.5-50.9-.6-.4-2.2.1-2.8.8-.8.8-1.8,2.6-1.5,3.2,10.1,18.3,7.4,38.1,7.3,57.7,0,.6-.1,1-.2,1.6,1.2,6.5,1.3,13.5,0,21.1-1.2,7.1-3.3,13.5-6.2,19.7-3,6.4-6.9,12.3-10.5,18.3-5.7,9.5-11.9,18.5-20.1,26.1-8.8,8.1-17.1,16.9-25.8,25,14.6-9.4,28.8-19.4,43.9-28,2.2-1.3,5-3.1,5.8-5.3,5.1-14.3,17.9-22.5,26.2-34.2,11.6-16.4,9.9-37.3,17.5-55.2h0ZM682.3,52.9c4.4,2.4,8.8,4.8,13,7.6,4.2,2.8,7.9,6.4,12.2,8.8,1.5.8,4.5-1,6.7-1.8.2,0,0-2.2-.5-2.9-7.3-8.7-13.9-18.7-27.5-17.6-1.2.3-2.4.5-3.5.9-3.9,1.5-3.9,3.1-.3,5.1h0Z"></path>
</svg>