<svg xmlns="http://www.w3.org/2000/svg" viewBox="0 0 308.95 34.9"><defs></defs><path mask="url(#myMask)" class="cls-2" d="m304.06,7.26c-.4-.34-.24-.1-.04-.05,1.89.49,5.15.69,4.91,2.4-.34,2.45-3.3,1.53-5.36,1.38-11.9-.82-23.75-1.17-35.66.66-21.03,3.25-42.27,4.86-63.28,8.42-9.21,1.56-18.65,2.01-28,2.51-4.8.26-9.68-.94-14.48-.63-5.33.26-10.67-.26-15.85-1.55-11.07-2.55-21.96-1.08-32.88.79-6.62,1.13-13.29,1.89-19.87-.07-4.06-1.24-8.44-.79-12.15,1.26-6.01,3.26-12.46,2.78-18.81,3.36-2.5.23-5.19-.25-7.49.52-6.52,2.18-13.01,1.44-19.49.36-4.12-.77-8.37-.33-12.24,1.27-5.8,2.52-12.15,2.48-17.99,4.6-.65.01-1.25-.32-1.59-.87-.07-.67.2-1.33.72-1.76,3.55-2.18,7.16-4.26,10.79-6.32.4-.23.89-.25,1.31-.08,3.47,2.86,6.92.43,10.34-.04,5.23-.83,10.56-.76,15.77.21,4.34.89,8.5,1.37,12.98-.23,3.51-1.13,7.21-1.5,10.87-1.08,5.38.5,9.82-2,14.63-3.39.4-.16.79-.35,1.15-.58-.38-.24-.74-.67-1.14-.7-1.37-.07-2.75-.08-4.12-.01-11.66.53-23.31,1.24-34.98,1.53-4.13.11-8.29-.74-12.43-1.2-.28-.03-.74-.51-.72-.75.03-.4.33-1.04.61-1.1,1.78-.37,3.66-1.06,5.39-.82,7.2.97,14.14-1.28,21.25-1.32,8.69-.05,17.38-.58,26.07-.5,7.18.07,14.1-1.5,21.11-2.48,13.39-1.87,26.73-4.05,40.11-6,15.39-2.25,30.91-3.04,46.41-3.88,7.31-.4,14.68.63,22.03.7,6.84.07,13.69-.28,20.53-.44.47.02.93.07,1.39.15,7.36.78,14.72,2.11,22.09,2.22,9.88.14,19.62,2.75,29.59,1.43,2.45-.32,5.06.64,7.61.94,3.41.4,6.84.71,10.88,1.13Zm-164.44,8.2c3.89.03,7.87-.45,11.66.19,8.97,1.51,17.93.46,26.78-.15,20.95-1.43,41.84-3.77,62.75-5.74.44-.07.88-.18,1.31-.31-.5-.34-.97-.87-1.52-.99-1.59-.39-3.21-.63-4.85-.71-5.26-.08-10.52-.08-15.77.02-6.66.13-13.28.07-19.95-.43-5.86-.44-11.84.88-17.75.75-12.63-.28-25.1,1.29-37.62,2.44-4.31.4-8.59,1.45-12.9,1.56-13.31.33-26.22,3.8-39.46,4.65-.55.11-1.09.28-1.6.53.58.35,1.22.6,1.89.74,7.54,0,15.16.42,22.47-1.87,7.94-2.66,16.49-2.89,24.56-.66h0Z"></path></svg>